<mxfile host="Electron" modified="2024-01-11T07:27:56.732Z" agent="Mozilla/5.0 (Windows NT 10.0; Win64; x64) AppleWebKit/537.36 (KHTML, like Gecko) draw.io/22.1.11 Chrome/114.0.5735.289 Electron/25.9.8 Safari/537.36" etag="-eAwBKGcE-nSLapmymaK" version="22.1.11" type="device">
  <diagram name="第 1 页" id="TprkVrYOnCXSw0zorKTM">
    <mxGraphModel dx="1434" dy="844" grid="1" gridSize="10" guides="1" tooltips="1" connect="1" arrows="1" fold="1" page="1" pageScale="1" pageWidth="827" pageHeight="1169" math="0" shadow="0">
      <root>
        <mxCell id="0" />
        <mxCell id="1" parent="0" />
        <mxCell id="zRdjdwufTkkIH7XVJT0R-2" value="A" style="swimlane;fontStyle=1;align=center;verticalAlign=top;childLayout=stackLayout;horizontal=1;startSize=26;horizontalStack=0;resizeParent=1;resizeParentMax=0;resizeLast=0;collapsible=1;marginBottom=0;whiteSpace=wrap;html=1;" vertex="1" parent="1">
          <mxGeometry x="80" y="280" width="120" height="34" as="geometry" />
        </mxCell>
        <mxCell id="zRdjdwufTkkIH7XVJT0R-3" value="" style="line;strokeWidth=1;fillColor=none;align=left;verticalAlign=middle;spacingTop=-1;spacingLeft=3;spacingRight=3;rotatable=0;labelPosition=right;points=[];portConstraint=eastwest;strokeColor=inherit;" vertex="1" parent="zRdjdwufTkkIH7XVJT0R-2">
          <mxGeometry y="26" width="120" height="8" as="geometry" />
        </mxCell>
        <mxCell id="zRdjdwufTkkIH7XVJT0R-4" style="edgeStyle=none;rounded=0;orthogonalLoop=1;jettySize=auto;html=1;endArrow=block;endFill=0;" edge="1" parent="1" source="zRdjdwufTkkIH7XVJT0R-5" target="zRdjdwufTkkIH7XVJT0R-2">
          <mxGeometry relative="1" as="geometry" />
        </mxCell>
        <mxCell id="zRdjdwufTkkIH7XVJT0R-5" value="B" style="swimlane;fontStyle=1;align=center;verticalAlign=top;childLayout=stackLayout;horizontal=1;startSize=26;horizontalStack=0;resizeParent=1;resizeParentMax=0;resizeLast=0;collapsible=1;marginBottom=0;whiteSpace=wrap;html=1;" vertex="1" parent="1">
          <mxGeometry y="360" width="120" height="34" as="geometry" />
        </mxCell>
        <mxCell id="zRdjdwufTkkIH7XVJT0R-6" value="" style="line;strokeWidth=1;fillColor=none;align=left;verticalAlign=middle;spacingTop=-1;spacingLeft=3;spacingRight=3;rotatable=0;labelPosition=right;points=[];portConstraint=eastwest;strokeColor=inherit;" vertex="1" parent="zRdjdwufTkkIH7XVJT0R-5">
          <mxGeometry y="26" width="120" height="8" as="geometry" />
        </mxCell>
        <mxCell id="zRdjdwufTkkIH7XVJT0R-21" style="rounded=0;orthogonalLoop=1;jettySize=auto;html=1;endArrow=diamondThin;endFill=1;" edge="1" parent="1" source="zRdjdwufTkkIH7XVJT0R-8" target="zRdjdwufTkkIH7XVJT0R-5">
          <mxGeometry relative="1" as="geometry" />
        </mxCell>
        <mxCell id="zRdjdwufTkkIH7XVJT0R-8" value="C" style="swimlane;fontStyle=1;align=center;verticalAlign=top;childLayout=stackLayout;horizontal=1;startSize=26;horizontalStack=0;resizeParent=1;resizeParentMax=0;resizeLast=0;collapsible=1;marginBottom=0;whiteSpace=wrap;html=1;" vertex="1" parent="1">
          <mxGeometry x="160" y="360" width="120" height="34" as="geometry" />
        </mxCell>
        <mxCell id="zRdjdwufTkkIH7XVJT0R-9" value="" style="line;strokeWidth=1;fillColor=none;align=left;verticalAlign=middle;spacingTop=-1;spacingLeft=3;spacingRight=3;rotatable=0;labelPosition=right;points=[];portConstraint=eastwest;strokeColor=inherit;" vertex="1" parent="zRdjdwufTkkIH7XVJT0R-8">
          <mxGeometry y="26" width="120" height="8" as="geometry" />
        </mxCell>
        <mxCell id="zRdjdwufTkkIH7XVJT0R-10" value="A" style="swimlane;fontStyle=1;align=center;verticalAlign=top;childLayout=stackLayout;horizontal=1;startSize=26;horizontalStack=0;resizeParent=1;resizeParentMax=0;resizeLast=0;collapsible=1;marginBottom=0;whiteSpace=wrap;html=1;" vertex="1" parent="1">
          <mxGeometry x="440" y="280" width="120" height="34" as="geometry" />
        </mxCell>
        <mxCell id="zRdjdwufTkkIH7XVJT0R-11" value="" style="line;strokeWidth=1;fillColor=none;align=left;verticalAlign=middle;spacingTop=-1;spacingLeft=3;spacingRight=3;rotatable=0;labelPosition=right;points=[];portConstraint=eastwest;strokeColor=inherit;" vertex="1" parent="zRdjdwufTkkIH7XVJT0R-10">
          <mxGeometry y="26" width="120" height="8" as="geometry" />
        </mxCell>
        <mxCell id="zRdjdwufTkkIH7XVJT0R-12" style="edgeStyle=none;rounded=0;orthogonalLoop=1;jettySize=auto;html=1;endArrow=block;endFill=0;" edge="1" parent="1" source="zRdjdwufTkkIH7XVJT0R-14" target="zRdjdwufTkkIH7XVJT0R-10">
          <mxGeometry relative="1" as="geometry" />
        </mxCell>
        <mxCell id="zRdjdwufTkkIH7XVJT0R-13" style="edgeStyle=none;rounded=0;orthogonalLoop=1;jettySize=auto;html=1;endArrow=diamondThin;endFill=0;" edge="1" parent="1" source="zRdjdwufTkkIH7XVJT0R-14" target="zRdjdwufTkkIH7XVJT0R-17">
          <mxGeometry relative="1" as="geometry" />
        </mxCell>
        <mxCell id="zRdjdwufTkkIH7XVJT0R-14" value="B" style="swimlane;fontStyle=1;align=center;verticalAlign=top;childLayout=stackLayout;horizontal=1;startSize=26;horizontalStack=0;resizeParent=1;resizeParentMax=0;resizeLast=0;collapsible=1;marginBottom=0;whiteSpace=wrap;html=1;" vertex="1" parent="1">
          <mxGeometry x="360" y="360" width="120" height="34" as="geometry" />
        </mxCell>
        <mxCell id="zRdjdwufTkkIH7XVJT0R-15" value="" style="line;strokeWidth=1;fillColor=none;align=left;verticalAlign=middle;spacingTop=-1;spacingLeft=3;spacingRight=3;rotatable=0;labelPosition=right;points=[];portConstraint=eastwest;strokeColor=inherit;" vertex="1" parent="zRdjdwufTkkIH7XVJT0R-14">
          <mxGeometry y="26" width="120" height="8" as="geometry" />
        </mxCell>
        <mxCell id="zRdjdwufTkkIH7XVJT0R-16" style="edgeStyle=none;rounded=0;orthogonalLoop=1;jettySize=auto;html=1;endArrow=block;endFill=0;" edge="1" parent="1" source="zRdjdwufTkkIH7XVJT0R-17" target="zRdjdwufTkkIH7XVJT0R-10">
          <mxGeometry relative="1" as="geometry" />
        </mxCell>
        <mxCell id="zRdjdwufTkkIH7XVJT0R-17" value="C" style="swimlane;fontStyle=1;align=center;verticalAlign=top;childLayout=stackLayout;horizontal=1;startSize=26;horizontalStack=0;resizeParent=1;resizeParentMax=0;resizeLast=0;collapsible=1;marginBottom=0;whiteSpace=wrap;html=1;" vertex="1" parent="1">
          <mxGeometry x="520" y="360" width="120" height="34" as="geometry" />
        </mxCell>
        <mxCell id="zRdjdwufTkkIH7XVJT0R-18" value="" style="line;strokeWidth=1;fillColor=none;align=left;verticalAlign=middle;spacingTop=-1;spacingLeft=3;spacingRight=3;rotatable=0;labelPosition=right;points=[];portConstraint=eastwest;strokeColor=inherit;" vertex="1" parent="zRdjdwufTkkIH7XVJT0R-17">
          <mxGeometry y="26" width="120" height="8" as="geometry" />
        </mxCell>
        <mxCell id="zRdjdwufTkkIH7XVJT0R-19" value="适配器模式" style="text;html=1;strokeColor=none;fillColor=none;align=center;verticalAlign=middle;whiteSpace=wrap;rounded=0;" vertex="1" parent="1">
          <mxGeometry x="105" y="240" width="70" height="30" as="geometry" />
        </mxCell>
        <mxCell id="zRdjdwufTkkIH7XVJT0R-20" value="代理模式" style="text;html=1;strokeColor=none;fillColor=none;align=center;verticalAlign=middle;whiteSpace=wrap;rounded=0;" vertex="1" parent="1">
          <mxGeometry x="470" y="240" width="60" height="30" as="geometry" />
        </mxCell>
      </root>
    </mxGraphModel>
  </diagram>
</mxfile>
